<?xml version="1.0" encoding="utf-8"?>
<!-- Generator: Adobe Illustrator 24.1.2, SVG Export Plug-In . SVG Version: 6.00 Build 0)  -->
<svg version="1.1" id="레이어_1" xmlns="http://www.w3.org/2000/svg" xmlns:xlink="http://www.w3.org/1999/xlink" x="0px"
	 y="0px" viewBox="0 0 331 645" style="enable-background:new 0 0 331 645;" xml:space="preserve">
<style type="text/css">
	.st0{fill:#FFFFFF;stroke:#000000;stroke-miterlimit:10;}
	.st1{font-family:'ArialMT';}
	.st2{font-size:12px;}
	.st3{font-size:25px;}
	.st4{enable-background:new    ;}
	.st5{font-family:'AdobeMyungjoStd-Medium-KSCpc-EUC-H';}
	.st6{font-size:21px;}
</style>
<rect x="0.5" y="0.5" class="st0" width="330" height="644"/>
<text transform="matrix(1 0 0 1 42.2124 204.9793)" class="st1 st2"> </text>
<text transform="matrix(1 0 0 1 139.8156 188.7793)" class="st1 st3">Next</text>
<text transform="matrix(1 0 0 1 75.8156 218.7793)" class="st1 st3">TEAM Hankan </text>
<text transform="matrix(1 0 0 1 120.0156 248.7793)" class="st1 st3">member</text>
<text transform="matrix(1 0 0 1 57.0156 308.7793)" class="st4"><tspan x="0" y="0" class="st5 st3">한칸과</tspan><tspan x="75" y="0" class="st1 st3"> </tspan><tspan x="81.9" y="0" class="st5 st3">함께</tspan><tspan x="131.9" y="0" class="st1 st3"> </tspan><tspan x="138.9" y="0" class="st5 st3">희망을</tspan><tspan x="213.9" y="0" class="st1 st3"> </tspan></text>
<text transform="matrix(1 0 0 1 20.0156 338.7793)" class="st4"><tspan x="0" y="0" class="st5 st3">전달할</tspan><tspan x="75" y="0" class="st1 st3"> </tspan><tspan x="81.9" y="0" class="st5 st3">당신을</tspan><tspan x="156.9" y="0" class="st1 st3"> </tspan><tspan x="163.9" y="0" class="st5 st3">기다립니다</tspan><tspan x="288.9" y="0" class="st1 st3">.</tspan></text>
<text transform="matrix(1 0 0 1 40 428)" class="st5 st6">hankan5170@gmail.com</text>
</svg>
