<?xml version="1.0" encoding="utf-8"?>
<!-- Generator: Adobe Illustrator 24.1.2, SVG Export Plug-In . SVG Version: 6.00 Build 0)  -->
<svg version="1.1" id="레이어_1" xmlns="http://www.w3.org/2000/svg" xmlns:xlink="http://www.w3.org/1999/xlink" x="0px"
	 y="0px" viewBox="0 0 227.4 173.4" style="enable-background:new 0 0 227.4 173.4;" xml:space="preserve">
<style type="text/css">
	.st0{clip-path:url(#SVGID_2_);}
	.st1{fill:none;}
	.st2{clip-path:url(#SVGID_4_);fill:#5EB9E9;}
	.st3{clip-path:url(#SVGID_6_);fill:none;}
	.st4{clip-path:url(#SVGID_8_);fill:#FFFFFF;}
	.st5{clip-path:url(#SVGID_10_);fill:#5EB9E9;}
	.st6{clip-path:url(#SVGID_12_);}
	.st7{fill:#5EB9E9;}
	.st8{fill:#FFFFFF;}
</style>
<g>
	<g>
		<defs>
			<rect id="SVGID_1_" width="227.4" height="173.4"/>
		</defs>
		<clipPath id="SVGID_2_">
			<use xlink:href="#SVGID_1_"  style="overflow:visible;"/>
		</clipPath>
		<g class="st0">
			<rect y="1.9" class="st1" width="229.3" height="172"/>
			<g>
				<g>
					<g>
						<defs>
							<rect id="SVGID_3_" y="1.9" width="229.3" height="172"/>
						</defs>
						<clipPath id="SVGID_4_">
							<use xlink:href="#SVGID_3_"  style="overflow:visible;"/>
						</clipPath>
						<rect x="-53.7" y="-169.1" class="st2" width="537.4" height="1164"/>
					</g>
				</g>
				<g>
					<g>
						<defs>
							<rect id="SVGID_5_" y="1.9" width="229.3" height="172"/>
						</defs>
						<clipPath id="SVGID_6_">
							<use xlink:href="#SVGID_5_"  style="overflow:visible;"/>
						</clipPath>
						<rect x="-53.7" y="-169.1" class="st3" width="537.4" height="1164"/>
					</g>
				</g>
				<g>
					<g>
						<defs>
							<rect id="SVGID_7_" y="1.9" width="229.3" height="172"/>
						</defs>
						<clipPath id="SVGID_8_">
							<use xlink:href="#SVGID_7_"  style="overflow:visible;"/>
						</clipPath>
						<rect x="-53.7" y="-169.1" class="st4" width="537.4" height="1164"/>
					</g>
				</g>
				<g>
					<g>
						<defs>
							<rect id="SVGID_9_" y="1.9" width="229.3" height="172"/>
						</defs>
						<clipPath id="SVGID_10_">
							<use xlink:href="#SVGID_9_"  style="overflow:visible;"/>
						</clipPath>
						<rect id="사각형_325" x="-53.7" y="-169.1" class="st5" width="537.4" height="1164"/>
					</g>
				</g>
				<g>
					<g>
						<defs>
							<rect id="SVGID_11_" y="1.9" width="229.3" height="172"/>
						</defs>
						<clipPath id="SVGID_12_">
							<use xlink:href="#SVGID_11_"  style="overflow:visible;"/>
						</clipPath>
						<g class="st6">
							<g>
								<rect x="1.4" y="-2.4" class="st7" width="272.4" height="272.4"/>
							</g>
							<text transform="matrix(1 0 0 1 39.4121 216.4417)" class="st8" style="font-family:'MalgunGothic'; font-size:27.2345px;">한칸의</text>
							<text transform="matrix(1 0 0 1 121.1201 216.4417)" class="st8" style="font-family:'SegoeUI'; font-size:27.2345px;"> </text>
							<text transform="matrix(1 0 0 1 128.5791 216.4417)" class="st8" style="font-family:'MalgunGothic'; font-size:27.2345px;">희망이</text>
							<text transform="matrix(1 0 0 1 39.4121 249.4104)" class="st8" style="font-family:'MalgunGothic'; font-size:27.2345px;">당신의</text>
							<text transform="matrix(1 0 0 1 121.1201 249.4104)" class="st8" style="font-family:'SegoeUI'; font-size:27.2345px;"> </text>
							<text transform="matrix(1 0 0 1 128.5791 249.4104)" class="st8" style="font-family:'MalgunGothic'; font-size:27.2345px;">한칸으로</text>
							<g id="그룹_131" transform="translate(0 56.536)">
								<path id="패스_47" class="st8" d="M39.5,49.1v-4.6h36.9v4.6H39.5z M57.8,79.9c-9.4,0-16.4-5.1-16.4-13.5s7-13.2,16.4-13.2
									s16.4,5.1,16.4,13.2S67.2,79.9,57.8,79.9L57.8,79.9z M57.8,57.7c-6.3,0-11.3,3.1-11.3,8.7s5.1,8.7,11.3,8.7
									c6,0,11.3-3.1,11.3-8.7S63.8,57.7,57.8,57.7L57.8,57.7z M60,46.2h-4.8V36.1H60V46.2z M47.7,103.3V85.2h5.1v13.7h41v4.3H47.7
									z M90.8,63.5v21h-5.1V36.1h5.1v23.1h10.8v4.3H90.8z"/>
							</g>
							<g id="그룹_132" transform="translate(47.508 59.06)">
								<path id="패스_48" class="st8" d="M62.8,76.7l-2.6-4.1C72.7,69,80.9,62.5,85,54.3H61.4V50l25.8,0.2c1-2.6,1.4-5.5,1.7-8.4
									H63.1V37h31.8C93.9,58.4,82.1,70.7,62.8,76.7z M69.1,101V79.6h5.1v16.9h41v4.6C115.1,101,69.1,101,69.1,101z"/>
							</g>
							<g id="그룹_133" transform="translate(1.663)">
								<path id="패스_49" class="st8" d="M186.9,160.4l-140.7-1v-5.1l135.4,1v-85l-67.9-52.5L42.8,70.6l-2.9-4.1l73.7-54.9
									l73,56.4L186.9,160.4z"/>
							</g>
							<g id="그룹_134" transform="translate(77.894 56.736)">
								<path id="패스_50" class="st8" d="M78.4,63.8v20.7h-5.1V36.1h5.1v23.1h10.8v4.3H78.4V63.8z"/>
							</g>
						</g>
					</g>
				</g>
			</g>
		</g>
	</g>
</g>
</svg>
